<mxfile host="app.diagrams.net" agent="Mozilla/5.0 (Windows NT 10.0; Win64; x64) AppleWebKit/537.36 (KHTML, like Gecko) Chrome/127.0.0.0 Safari/537.36" version="24.7.5" pages="2">
  <diagram name="Page-1" id="bepCv5NXbVu49NAXqQbo">
    <mxGraphModel dx="1075" dy="608" grid="1" gridSize="10" guides="1" tooltips="1" connect="1" arrows="1" fold="1" page="1" pageScale="1" pageWidth="1169" pageHeight="827" math="0" shadow="0">
      <root>
        <mxCell id="0" />
        <mxCell id="1" parent="0" />
        <mxCell id="Wjg2MNUysMHDsQ0D-KE0-12" value="0" style="swimlane;fontStyle=0;childLayout=stackLayout;horizontal=1;startSize=20;fillColor=#ffffff;horizontalStack=0;resizeParent=1;resizeParentMax=0;resizeLast=0;collapsible=0;marginBottom=0;swimlaneFillColor=#ffffff;rounded=1;" parent="1" vertex="1">
          <mxGeometry x="460" y="280" width="150" height="100" as="geometry" />
        </mxCell>
        <mxCell id="Wjg2MNUysMHDsQ0D-KE0-13" value="&lt;font style=&quot;font-size: 14px;&quot;&gt;แอพลิเคชันระบบ ยืม/คืน &lt;br&gt;อุปกรณ์ทางการแพทย์&amp;nbsp;&lt;/font&gt;&lt;div style=&quot;font-size: 14px;&quot;&gt;&lt;font style=&quot;font-size: 14px;&quot;&gt;รพ.สต. จอมหมอกแก้ว&amp;nbsp;&lt;/font&gt;&lt;/div&gt;" style="text;html=1;align=center;verticalAlign=middle;whiteSpace=wrap;rounded=0;" parent="Wjg2MNUysMHDsQ0D-KE0-12" vertex="1">
          <mxGeometry y="20" width="150" height="80" as="geometry" />
        </mxCell>
        <mxCell id="Wjg2MNUysMHDsQ0D-KE0-19" style="edgeStyle=orthogonalEdgeStyle;rounded=0;orthogonalLoop=1;jettySize=auto;html=1;exitX=0;exitY=0.5;exitDx=0;exitDy=0;entryX=0.75;entryY=0;entryDx=0;entryDy=0;" parent="1" source="Wjg2MNUysMHDsQ0D-KE0-15" target="Wjg2MNUysMHDsQ0D-KE0-12" edge="1">
          <mxGeometry relative="1" as="geometry" />
        </mxCell>
        <mxCell id="Wjg2MNUysMHDsQ0D-KE0-15" value="&lt;font style=&quot;font-size: 14px;&quot;&gt;ผู้ดูแลระบบ&lt;/font&gt;" style="html=1;dashed=0;whiteSpace=wrap;" parent="1" vertex="1">
          <mxGeometry x="840" y="150" width="100" height="50" as="geometry" />
        </mxCell>
        <mxCell id="Wjg2MNUysMHDsQ0D-KE0-20" style="edgeStyle=orthogonalEdgeStyle;rounded=0;orthogonalLoop=1;jettySize=auto;html=1;exitX=1;exitY=0.5;exitDx=0;exitDy=0;" parent="1" source="Wjg2MNUysMHDsQ0D-KE0-16" edge="1">
          <mxGeometry relative="1" as="geometry">
            <mxPoint x="510" y="380" as="targetPoint" />
            <Array as="points">
              <mxPoint x="510" y="515" />
              <mxPoint x="510" y="380" />
            </Array>
          </mxGeometry>
        </mxCell>
        <mxCell id="Wjg2MNUysMHDsQ0D-KE0-16" value="&lt;font style=&quot;font-size: 14px;&quot;&gt;ผู้ยืม&lt;/font&gt;" style="html=1;dashed=0;whiteSpace=wrap;" parent="1" vertex="1">
          <mxGeometry x="120" y="490" width="100" height="50" as="geometry" />
        </mxCell>
        <mxCell id="Wjg2MNUysMHDsQ0D-KE0-21" style="edgeStyle=orthogonalEdgeStyle;rounded=0;orthogonalLoop=1;jettySize=auto;html=1;exitX=0;exitY=0.5;exitDx=0;exitDy=0;entryX=0.667;entryY=1.005;entryDx=0;entryDy=0;entryPerimeter=0;" parent="1" source="Wjg2MNUysMHDsQ0D-KE0-17" target="Wjg2MNUysMHDsQ0D-KE0-13" edge="1">
          <mxGeometry relative="1" as="geometry" />
        </mxCell>
        <mxCell id="Wjg2MNUysMHDsQ0D-KE0-17" value="&lt;font style=&quot;font-size: 14px;&quot;&gt;เจ้าหน้าที่&lt;/font&gt;" style="html=1;dashed=0;whiteSpace=wrap;" parent="1" vertex="1">
          <mxGeometry x="840" y="490" width="100" height="50" as="geometry" />
        </mxCell>
        <mxCell id="Wjg2MNUysMHDsQ0D-KE0-23" style="edgeStyle=orthogonalEdgeStyle;rounded=0;orthogonalLoop=1;jettySize=auto;html=1;exitX=1;exitY=0.75;exitDx=0;exitDy=0;" parent="1" source="Wjg2MNUysMHDsQ0D-KE0-13" target="Wjg2MNUysMHDsQ0D-KE0-17" edge="1">
          <mxGeometry relative="1" as="geometry" />
        </mxCell>
        <mxCell id="Wjg2MNUysMHDsQ0D-KE0-24" style="edgeStyle=orthogonalEdgeStyle;rounded=0;orthogonalLoop=1;jettySize=auto;html=1;exitX=1;exitY=0.25;exitDx=0;exitDy=0;entryX=0.5;entryY=1;entryDx=0;entryDy=0;" parent="1" source="Wjg2MNUysMHDsQ0D-KE0-13" target="Wjg2MNUysMHDsQ0D-KE0-15" edge="1">
          <mxGeometry relative="1" as="geometry" />
        </mxCell>
        <mxCell id="Wjg2MNUysMHDsQ0D-KE0-51" value="&lt;font style=&quot;font-size: 14px;&quot;&gt;&lt;span style=&quot;background-color: initial;&quot;&gt;- เพิ่มข้อมูลเจ้าหน้าที่&lt;/span&gt;&lt;br&gt;&lt;span style=&quot;background-color: initial;&quot;&gt;- เพิ่มข้อมูลผู้ใช้คนอื่นทุกคนได้&lt;/span&gt;&lt;br&gt;&lt;span style=&quot;background-color: initial;&quot;&gt;- ลบข้อมูลผู้ใช้ทุกคนได้&lt;/span&gt;&lt;br&gt;&lt;span style=&quot;background-color: initial;&quot;&gt;- แก้ไขข้อมูลผู้ใช้ทุกคน&lt;/span&gt;&lt;/font&gt;&lt;div style=&quot;font-size: 14px;&quot;&gt;&lt;font style=&quot;font-size: 14px;&quot;&gt;&lt;span style=&quot;background-color: initial;&quot;&gt;-&amp;nbsp;&lt;/span&gt;&lt;span style=&quot;background-color: initial;&quot;&gt;ชื่อ, นามสกุล, เลขบัตรประชาชน, เบอร์โทร (ประวัติส่วนตัว)&lt;/span&gt;&lt;/font&gt;&lt;/div&gt;&lt;div style=&quot;font-size: 14px;&quot;&gt;&lt;span style=&quot;background-color: initial;&quot;&gt;&lt;br&gt;&lt;/span&gt;&lt;/div&gt;" style="text;html=1;align=left;verticalAlign=middle;whiteSpace=wrap;rounded=0;" parent="1" vertex="1">
          <mxGeometry x="580" y="194" width="310" height="86" as="geometry" />
        </mxCell>
        <mxCell id="Wjg2MNUysMHDsQ0D-KE0-52" value="&lt;div style=&quot;text-align: left; font-size: 14px;&quot;&gt;&lt;font style=&quot;font-size: 14px;&quot;&gt;&lt;span style=&quot;background-color: initial;&quot;&gt;- สถานะการยืม&lt;/span&gt;&lt;span style=&quot;background-color: initial;&quot;&gt;อุปกรณ์ฯ&lt;/span&gt;&lt;/font&gt;&lt;/div&gt;&lt;div style=&quot;text-align: left; font-size: 14px;&quot;&gt;&lt;font style=&quot;font-size: 14px;&quot;&gt;- ประวัติการยืม&lt;span style=&quot;background-color: initial;&quot;&gt;อุปกรณ์ฯ&lt;/span&gt;&lt;br&gt;&lt;/font&gt;&lt;/div&gt;&lt;div style=&quot;text-align: left; font-size: 14px;&quot;&gt;&lt;font style=&quot;font-size: 14px;&quot;&gt;- อุปกรณ์ฯที่พร้อมยืม&lt;/font&gt;&lt;br&gt;&lt;/div&gt;" style="text;html=1;align=center;verticalAlign=middle;whiteSpace=wrap;rounded=0;" parent="1" vertex="1">
          <mxGeometry x="170" y="330" width="160" height="40" as="geometry" />
        </mxCell>
        <mxCell id="Wjg2MNUysMHDsQ0D-KE0-53" value="&lt;div style=&quot;text-align: left; font-size: 14px;&quot;&gt;&lt;span style=&quot;background-color: initial;&quot;&gt;&lt;font style=&quot;font-size: 14px;&quot;&gt;- ชื่อ, นามสกุล, เลขบัตรประชาชน, เบอร์โทร &lt;br&gt;(ประวัติส่วนตัว)&lt;/font&gt;&lt;/span&gt;&lt;/div&gt;&lt;div style=&quot;text-align: left; font-size: 14px;&quot;&gt;&lt;font style=&quot;font-size: 14px;&quot;&gt;- คำขอยืม&lt;span style=&quot;background-color: initial;&quot;&gt;อุปกรณ์ฯ&lt;/span&gt;&lt;br&gt;&lt;/font&gt;&lt;/div&gt;&lt;div style=&quot;text-align: left; font-size: 14px;&quot;&gt;&lt;font style=&quot;font-size: 14px;&quot;&gt;- คำขอต่อสัญญา&lt;span style=&quot;background-color: initial;&quot;&gt;อุปกรณ์ฯ&lt;/span&gt;&lt;br&gt;&lt;/font&gt;&lt;/div&gt;&lt;div style=&quot;text-align: left; font-size: 14px;&quot;&gt;&lt;font style=&quot;font-size: 14px;&quot;&gt;- วันที่ยืม, วันที่คืน&lt;br&gt;&lt;/font&gt;&lt;/div&gt;&lt;div style=&quot;text-align: left; font-size: 14px;&quot;&gt;&lt;font style=&quot;font-size: 14px;&quot;&gt;- ข้อมูลผู้ป่วยที่ดูแล&lt;/font&gt;&lt;/div&gt;" style="text;html=1;align=center;verticalAlign=middle;whiteSpace=wrap;rounded=0;" parent="1" vertex="1">
          <mxGeometry x="200" y="420" width="310" height="90" as="geometry" />
        </mxCell>
        <mxCell id="Wjg2MNUysMHDsQ0D-KE0-54" value="&lt;font style=&quot;font-size: 14px;&quot;&gt;- ข้อมูลผู้ใช้ทุกคน&lt;/font&gt;&lt;div style=&quot;font-size: 14px;&quot;&gt;&lt;font style=&quot;font-size: 14px;&quot;&gt;- ข้อมูลใบยืมอุปกรณ์ฯ ทั้งหมด&lt;/font&gt;&lt;/div&gt;&lt;div style=&quot;font-size: 14px;&quot;&gt;&lt;font style=&quot;font-size: 14px;&quot;&gt;- ข้อมูลอุปกรณ์ฯ ทั้งหมด&lt;/font&gt;&lt;/div&gt;" style="text;html=1;align=left;verticalAlign=middle;whiteSpace=wrap;rounded=0;" parent="1" vertex="1">
          <mxGeometry x="890" y="220" width="190" height="54" as="geometry" />
        </mxCell>
        <mxCell id="Dl594Gr93o3GSvpdm3we-1" value="&lt;font style=&quot;font-size: 14px;&quot;&gt;- อ่านข้อมูลผู้ยืม/ผู้ป่วยได้&lt;/font&gt;&lt;div style=&quot;font-size: 14px;&quot;&gt;&lt;font style=&quot;font-size: 14px;&quot;&gt;- อ่านข้อมูลอุปกรณ์ฯ ทั้งหมด&lt;/font&gt;&lt;/div&gt;&lt;div style=&quot;font-size: 14px;&quot;&gt;&lt;font style=&quot;font-size: 14px;&quot;&gt;- อ่านคำขอต่อสัญญาอุปกรณฯ&lt;/font&gt;&lt;/div&gt;&lt;div style=&quot;font-size: 14px;&quot;&gt;&lt;span style=&quot;background-color: initial;&quot;&gt;&lt;font style=&quot;font-size: 14px;&quot;&gt;- อ่านข้อมูลใบยืมอุปกรณ์ฯ&lt;/font&gt;&lt;/span&gt;&lt;/div&gt;" style="text;html=1;align=left;verticalAlign=middle;whiteSpace=wrap;rounded=0;" parent="1" vertex="1">
          <mxGeometry x="890" y="390" width="190" height="60" as="geometry" />
        </mxCell>
        <mxCell id="Dl594Gr93o3GSvpdm3we-2" value="&lt;font style=&quot;font-size: 14px;&quot;&gt;- อนุมัติการยืมอุปกรณ์ฯ&lt;/font&gt;&lt;div style=&quot;font-size: 14px;&quot;&gt;&lt;font style=&quot;font-size: 14px;&quot;&gt;- อนุมัติคำขอต่อสัญญาอุปกรณ์ฯ&lt;/font&gt;&lt;/div&gt;&lt;div style=&quot;font-size: 14px;&quot;&gt;&lt;font style=&quot;font-size: 14px;&quot;&gt;- เพิ่มข้อมูล&lt;span style=&quot;background-color: initial;&quot;&gt;อุปกรณ์ฯ&lt;/span&gt;&lt;/font&gt;&lt;/div&gt;&lt;div style=&quot;font-size: 14px;&quot;&gt;&lt;font style=&quot;font-size: 14px;&quot;&gt;- ลบข้อมูล&lt;span style=&quot;background-color: initial;&quot;&gt;อุปกรณ์ฯ&lt;/span&gt;&lt;/font&gt;&lt;/div&gt;&lt;div style=&quot;font-size: 14px;&quot;&gt;&lt;font style=&quot;font-size: 14px;&quot;&gt;- แก้ไขข้อมูล&lt;span style=&quot;background-color: initial;&quot;&gt;อุปกรณ์ฯ&lt;/span&gt;&lt;/font&gt;&lt;/div&gt;&lt;div style=&quot;font-size: 14px;&quot;&gt;&lt;font style=&quot;font-size: 14px;&quot;&gt;&lt;span style=&quot;background-color: initial;&quot;&gt;-&amp;nbsp;&lt;/span&gt;&lt;span style=&quot;background-color: initial;&quot;&gt;ชื่อ, นามสกุล, เลขบัตรประชาชน, เบอร์โทร &lt;br&gt;(ประวัติส่วนตัว)&lt;/span&gt;&lt;/font&gt;&lt;br&gt;&lt;/div&gt;" style="text;html=1;align=left;verticalAlign=middle;whiteSpace=wrap;rounded=0;" parent="1" vertex="1">
          <mxGeometry x="570" y="390" width="300" height="100" as="geometry" />
        </mxCell>
        <mxCell id="VgqWOTxvius95Ya1DW3q-1" value="&lt;font size=&quot;1&quot; style=&quot;&quot;&gt;&lt;b style=&quot;font-size: 30px;&quot;&gt;DFD LV.0 CMK Medstock&lt;/b&gt;&lt;/font&gt;" style="text;html=1;align=center;verticalAlign=middle;whiteSpace=wrap;rounded=0;" parent="1" vertex="1">
          <mxGeometry x="342.5" y="70" width="385" height="60" as="geometry" />
        </mxCell>
        <mxCell id="UF4Hw2m6DlKk9Jw-c16G-1" style="edgeStyle=orthogonalEdgeStyle;rounded=0;orthogonalLoop=1;jettySize=auto;html=1;exitX=0;exitY=0.25;exitDx=0;exitDy=0;" edge="1" parent="1" source="Wjg2MNUysMHDsQ0D-KE0-13" target="Wjg2MNUysMHDsQ0D-KE0-16">
          <mxGeometry relative="1" as="geometry">
            <mxPoint x="360" y="319.9230769230769" as="targetPoint" />
          </mxGeometry>
        </mxCell>
      </root>
    </mxGraphModel>
  </diagram>
  <diagram id="lGibayMBWFqPM9oYXn8B" name="Page-2">
    <mxGraphModel dx="1050" dy="530" grid="1" gridSize="10" guides="1" tooltips="1" connect="1" arrows="1" fold="1" page="1" pageScale="1" pageWidth="1654" pageHeight="1169" math="0" shadow="0">
      <root>
        <mxCell id="0" />
        <mxCell id="1" parent="0" />
      </root>
    </mxGraphModel>
  </diagram>
</mxfile>
